Genre: Drama
 Language: English
 IMDb: http://www.imdb.com/title/tt0896872/
 Source: 720p.BluRay Thanks!
-

Format : MPEG-4
 Format profile : Base Media
 Codec ID : isom
 File size : 2.63 GiB
 Duration : 1h 51mn
 Overall bit rate : 3 371 Kbps
-

Video
 ID : 1
 Format : AVC
 Format/Info : Advanced Video Codec
 Format profile : High@L4.1
 Format settings, CABAC : Yes
 Format settings, ReFrames : 3 frames
 Codec ID : avc1
 Codec ID/Info : Advanced Video Coding
 Duration : 1h 51mn
 Bit rate mode : Variable
 Bit rate : 3 000 Kbps
 Maximum bit rate : 15.5 Mbps
 Width : 1 280 pixels
 Height : 720 pixels
 Display aspect ratio : 16:9
 Frame rate mode : Constant
 Frame rate : 23.976 fps
 Color space : YUV
 Chroma subsampling : 4:2:0
 Bit depth : 8 bits
 Scan type : Progressive
 Bits/(Pixel*Frame) : 0.136
 Stream size : 2.28 GiB (87%)
 Writing library : x264
 
Audio
 ID : 2
 Format : AAC
 Format/Info : Advanced Audio Codec
 Format version : Version 4
 Format profile : LC
 Format settings, SBR : No
 Codec ID : 40
 Duration : 1h 51mn
 Bit rate mode : Variable
 Bit rate : 445 Kbps
 Maximum bit rate : 552 Kbps
 Channel(s) : 6 channels
 Channel positions : Front: L C R, Side: L R, LFE
 Sampling rate : 48.0 KHz
 Stream size : 356 MiB (13%)
-

Plot:
 A drama based on the experiences of Kathryn Bolkovac, a Nebraska cop who served as a peacekeeper in post-war Bosnia and outed the U.N. for covering up a sex scandal.
 
